<svg width="18" height="22" viewBox="0 0 18 22" fill="none" xmlns="http://www.w3.org/2000/svg">
<path d="M15.696 11.397L15.6957 11.3977C15.5052 11.8976 15.1932 12.3947 14.7665 12.8753C14.7646 12.8774 14.7617 12.8804 14.7587 12.8841L9.33358 19.0705L3.90326 12.8781L3.90282 12.8776C3.4753 12.3967 3.16255 11.8987 2.96975 11.393L2.96949 11.3924C2.18999 9.39087 2.48528 7.1248 3.76213 5.33072L3.68065 5.27273L3.76213 5.33072C5.04275 3.53122 7.07257 2.49859 9.33358 2.49859C11.5945 2.49859 13.6241 3.53118 14.9048 5.33072L14.9048 5.33073C16.1819 7.12478 16.4774 9.39084 15.696 11.397ZM16.2529 4.4194C14.6609 2.18258 12.1377 0.9 9.33358 0.9C6.52941 0.9 4.00622 2.18258 2.41429 4.4194C0.83037 6.64463 0.463757 9.4633 1.4339 11.9546C1.69493 12.6387 2.10893 13.3012 2.65972 13.9203C2.65981 13.9204 2.65989 13.9204 2.65997 13.9205L8.70999 20.8197C8.86618 20.998 9.09427 21.1 9.33358 21.1C9.57285 21.1 9.80094 20.998 9.95713 20.8198C9.95714 20.8197 9.95715 20.8197 9.95717 20.8197L16.0055 13.9224C16.0056 13.9223 16.0057 13.9221 16.0058 13.922C16.5589 13.2996 16.9724 12.6378 17.2314 11.9589C18.2034 9.46324 17.8368 6.64462 16.2529 4.4194Z" fill="#003B6C" stroke="#003B6C" stroke-width="0.2"/>
<path d="M9.33373 5.04941C7.05726 5.04941 5.20005 6.84805 5.20005 9.06551C5.20005 11.283 7.05702 13.0816 9.33373 13.0816C11.6105 13.0816 13.4674 11.283 13.4674 9.06551C13.4674 6.84829 11.6102 5.04941 9.33373 5.04941ZM9.33373 11.483C7.95635 11.483 6.84064 10.3956 6.84064 9.06547C6.84064 7.73534 7.95635 6.64797 9.33373 6.64797C10.7111 6.64797 11.8268 7.73534 11.8268 9.06547C11.8268 10.3956 10.7111 11.483 9.33373 11.483Z" fill="#003B6C" stroke="#003B6C" stroke-width="0.2"/>
</svg>
