<svg width="20" height="15" viewBox="0 0 20 15" fill="none" xmlns="http://www.w3.org/2000/svg">
<path d="M17.6262 0H2.37383C1.06491 0 0 1.00985 0 2.25108V12.7489C0 13.9902 1.06491 15 2.37383 15H17.6262C18.9351 15 20 13.9902 20 12.7489V2.25108C20 1.00985 18.9351 0 17.6262 0ZM17.6262 13.0127H2.37383C2.18143 13.0127 2.01268 12.8894 2.01268 12.7489V3.63925L8.91094 9.3901C9.05236 9.50804 9.2322 9.57296 9.41738 9.57296L10.5824 9.57301C10.7675 9.57301 10.9474 9.50804 11.0889 9.3901L17.9875 3.63905V12.749C17.9874 12.8894 17.8186 13.0127 17.6262 13.0127ZM10 7.59967L3.29062 1.98734H16.7094L10 7.59967Z" fill="#003B6C"/>
</svg>
