<svg width="22" height="22" viewBox="0 0 22 22" fill="none" xmlns="http://www.w3.org/2000/svg">
<path d="M6.13119 13.4343C7.97182 15.6216 10.1858 17.3465 12.7067 18.5615C13.6338 19.0029 14.8469 19.5082 16.1433 19.5907L16.1439 19.5908C16.2036 19.5947 16.2688 19.5948 16.3377 19.5948C16.9854 19.5948 17.4665 19.3884 17.8809 18.9489C18.1657 18.6154 18.4674 18.3198 18.7597 18.0422M6.13119 13.4343L18.7606 18.0414C18.7603 18.0417 18.76 18.0419 18.7597 18.0422M6.13119 13.4343C4.60811 11.6067 3.59517 9.9236 2.92511 8.12117L2.9249 8.12061C2.51278 7.0221 2.36869 6.18373 2.4329 5.40297C2.47392 4.92601 2.65585 4.53569 2.99576 4.19729L4.52807 2.67181C4.72479 2.48867 4.91156 2.40968 5.07332 2.40968C5.27692 2.40968 5.45781 2.53416 5.58926 2.66503L5.59601 2.67175L5.60276 2.67847L5.60268 2.67856L5.60765 2.68317C5.8783 2.93495 6.13642 3.19629 6.41056 3.47815L6.41059 3.47819C6.481 3.55055 6.55245 3.6228 6.6238 3.69495L6.62521 3.69638C6.69628 3.76824 6.76727 3.84004 6.83819 3.91285L6.83817 3.91286L6.84035 3.91503L8.06895 5.13815C8.28848 5.35671 8.36783 5.53717 8.36783 5.69086C8.36783 5.84456 8.28848 6.02501 8.06895 6.24357C8.02346 6.28885 7.97942 6.33321 7.93604 6.3769C7.8516 6.46195 7.76967 6.54448 7.68442 6.62642L7.68437 6.62636L7.68026 6.63054C7.30301 7.01505 6.94671 7.36966 6.56026 7.71459L6.56006 7.71437L6.55594 7.71847L6.55067 7.72286C6.54478 7.72789 6.53178 7.73908 6.51786 7.75651C6.30254 7.9755 6.20506 8.20269 6.17975 8.42034C6.15462 8.63653 6.20282 8.82669 6.24628 8.9637L6.24626 8.9637L6.24727 8.96673L6.24729 8.96681L6.24732 8.96689L6.24735 8.96696L6.24737 8.96704L6.2474 8.96712L6.24743 8.9672L6.24745 8.96728L6.24748 8.96736L6.24751 8.96744L6.24753 8.96752L6.24756 8.96759L6.24759 8.96767L6.24761 8.96775L6.24764 8.96783L6.24766 8.96791L6.24769 8.96799L6.24772 8.96807L6.24774 8.96815L6.24777 8.96822L6.2478 8.9683L6.24782 8.96838L6.24785 8.96846L6.24788 8.96854L6.2479 8.96862L6.24793 8.9687L6.24795 8.96878L6.24798 8.96885L6.24801 8.96893L6.24803 8.96901L6.24806 8.96909L6.24809 8.96917L6.24811 8.96925L6.24814 8.96933L6.24817 8.96941L6.24819 8.96948L6.24822 8.96956L6.24824 8.96964L6.24827 8.96972L6.2483 8.9698L6.24832 8.96988L6.24835 8.96996L6.24838 8.97004L6.2484 8.97011L6.24843 8.97019L6.24846 8.97027L6.24848 8.97035L6.24851 8.97043L6.24853 8.97051L6.24856 8.97059L6.24859 8.97067L6.24861 8.97074L6.24864 8.97082L6.24867 8.9709L6.24869 8.97098L6.24872 8.97106L6.24875 8.97114L6.24877 8.97122L6.2488 8.9713L6.24882 8.97137L6.24885 8.97145L6.24888 8.97153L6.2489 8.97161L6.24893 8.97169L6.24896 8.97177L6.24898 8.97185L6.24901 8.97193L6.24904 8.972L6.24906 8.97208L6.24909 8.97216L6.24911 8.97224L6.24914 8.97232L6.24917 8.9724L6.24919 8.97248L6.24922 8.97256L6.24925 8.97263L6.24927 8.97271L6.2493 8.97279L6.24933 8.97287L6.24935 8.97295L6.24938 8.97303L6.2494 8.97311L6.24943 8.97319L6.24946 8.97326L6.24948 8.97334L6.24951 8.97342L6.24954 8.9735L6.24956 8.97358L6.24959 8.97366L6.24962 8.97374L6.24964 8.97382L6.24967 8.97389L6.24969 8.97397L6.24972 8.97405L6.24975 8.97413L6.24977 8.97421L6.2498 8.97429L6.24983 8.97437L6.24985 8.97445L6.24988 8.97452L6.24991 8.9746L6.24993 8.97468L6.24996 8.97476L6.24998 8.97484L6.25001 8.97492L6.25004 8.975L6.25006 8.97508L6.25009 8.97515L6.25012 8.97523L6.25014 8.97531L6.25017 8.97539L6.2502 8.97547L6.25022 8.97555L6.25025 8.97563L6.25027 8.97571L6.2503 8.97578L6.25033 8.97586L6.25035 8.97594L6.25038 8.97602L6.25041 8.9761L6.25043 8.97618L6.25046 8.97626L6.25049 8.97634L6.25051 8.97641L6.25054 8.97649L6.25057 8.97657L6.25059 8.97665L6.25062 8.97673L6.25064 8.97681L6.25067 8.97689L6.2507 8.97697L6.25072 8.97704L6.25075 8.97712L6.25078 8.9772L6.2508 8.97728L6.25083 8.97736L6.25085 8.97744L6.25088 8.97752L6.25091 8.9776L6.25093 8.97767L6.25096 8.97775L6.25099 8.97783L6.25101 8.97791L6.25104 8.97799L6.25107 8.97807L6.25109 8.97815L6.25112 8.97823L6.25114 8.9783L6.25117 8.97838L6.2512 8.97846L6.25122 8.97854L6.25125 8.97862L6.25128 8.9787L6.2513 8.97878L6.25133 8.97886L6.25136 8.97893L6.25138 8.97901L6.25141 8.97909L6.25143 8.97917L6.25146 8.97925L6.25149 8.97933L6.25151 8.97941L6.25154 8.97949L6.25157 8.97956L6.25159 8.97964L6.25162 8.97972L6.25165 8.9798L6.25167 8.97988L6.2517 8.97996L6.25173 8.98004L6.25175 8.98012L6.25178 8.98019L6.2518 8.98027L6.25183 8.98035L6.25186 8.98043L6.25188 8.98051L6.25191 8.98059L6.25194 8.98067L6.25196 8.98075L6.25199 8.98082L6.25202 8.9809L6.25204 8.98098L6.25207 8.98106L6.25209 8.98114L6.25212 8.98122L6.25215 8.9813L6.25217 8.98138L6.2522 8.98145L6.25223 8.98153L6.25225 8.98161L6.25228 8.98169L6.25231 8.98177L6.25233 8.98185L6.25236 8.98193L6.25238 8.98201L6.25241 8.98208L6.25244 8.98216L6.25246 8.98224L6.25249 8.98232L6.25252 8.9824L6.25254 8.98248L6.25257 8.98256L6.2526 8.98264L6.25262 8.98271L6.25265 8.98279L6.25267 8.98287L6.2527 8.98295L6.25273 8.98303L6.25275 8.98311L6.25278 8.98319L6.25281 8.98327L6.25283 8.98334L6.25286 8.98342L6.25289 8.9835L6.25291 8.98358L6.25294 8.98366L6.25296 8.98374L6.25299 8.98382L6.25302 8.9839L6.25304 8.98397L6.25307 8.98405L6.2531 8.98413L6.25312 8.98421L6.25315 8.98429L6.25318 8.98437L6.2532 8.98445L6.25323 8.98453L6.25325 8.9846L6.25328 8.98468L6.25331 8.98476L6.25333 8.98484L6.25336 8.98492L6.25339 8.985L6.25341 8.98508L6.25344 8.98516L6.25347 8.98523L6.25349 8.98531L6.25352 8.98539L6.25354 8.98547L6.25357 8.98555L6.2536 8.98563L6.25362 8.98571L6.25365 8.98579L6.25368 8.98586L6.2537 8.98594L6.25373 8.98602L6.25376 8.9861L6.25378 8.98618L6.25381 8.98626L6.25383 8.98634L6.25386 8.98642L6.25389 8.9865L6.25391 8.98657L6.25394 8.98665L6.25397 8.98673L6.25399 8.98681L6.25402 8.98689L6.25405 8.98697L6.25407 8.98705L6.2541 8.98712L6.25412 8.9872L6.25415 8.98728L6.25418 8.98736L6.2542 8.98744L6.25423 8.98752L6.25426 8.9876L6.25428 8.98768L6.25431 8.98775L6.25434 8.98783L6.25436 8.98791L6.25439 8.98799L6.25441 8.98807L6.25444 8.98815L6.25447 8.98823L6.25449 8.98831L6.25452 8.98839L6.25455 8.98846L6.25457 8.98854L6.2546 8.98862L6.25463 8.9887L6.25465 8.98878L6.25468 8.98886L6.2547 8.98894L6.25473 8.98902L6.25476 8.98909L6.25478 8.98917L6.25481 8.98925L6.25484 8.98933L6.25486 8.98941L6.25489 8.98949L6.25492 8.98957L6.25494 8.98965L6.25497 8.98972L6.25499 8.9898L6.25502 8.98988L6.25505 8.98996L6.25507 8.99004L6.2551 8.99012L6.25513 8.9902L6.25515 8.99027L6.25518 8.99035L6.25521 8.99043L6.25523 8.99051L6.25526 8.99059L6.25528 8.99067L6.25531 8.99075L6.25534 8.99083L6.25536 8.99091L6.25539 8.99098L6.25542 8.99106L6.25544 8.99114L6.25547 8.99122L6.2555 8.9913L6.25552 8.99138L6.25555 8.99146L6.25558 8.99154L6.2556 8.99161L6.25563 8.99169L6.25565 8.99177L6.25568 8.99185L6.25571 8.99193L6.25573 8.99201L6.25576 8.99209L6.25579 8.99217L6.25581 8.99224L6.25584 8.99232L6.25587 8.9924L6.25589 8.99248L6.25592 8.99256L6.25594 8.99264L6.25597 8.99272L6.256 8.99279L6.25602 8.99287L6.25605 8.99295L6.25608 8.99303L6.2561 8.99311L6.25613 8.99319L6.25616 8.99327L6.25618 8.99335L6.25621 8.99343L6.25623 8.9935L6.25626 8.99358L6.25629 8.99366L6.25631 8.99374L6.25634 8.99382L6.25637 8.9939L6.25639 8.99398L6.25642 8.99406L6.25645 8.99413L6.25647 8.99421L6.2565 8.99429L6.25652 8.99437L6.25655 8.99445L6.25658 8.99453L6.2566 8.99461L6.25663 8.99469L6.25666 8.99476L6.25668 8.99484L6.25671 8.99492L6.25674 8.995L6.25676 8.99508L6.25679 8.99516L6.25681 8.99524L6.25684 8.99532L6.25687 8.99539L6.25689 8.99547L6.25692 8.99555L6.25695 8.99563L6.25697 8.99571L6.257 8.99579L6.25703 8.99587L6.25705 8.99595L6.25708 8.99602L6.2571 8.9961L6.25713 8.99618L6.25716 8.99626L6.25718 8.99634L6.25721 8.99642L6.25724 8.9965L6.25726 8.99658L6.25729 8.99665L6.25732 8.99673L6.25734 8.99681L6.25737 8.99689L6.25739 8.99697L6.25742 8.99705L6.25745 8.99713L6.25747 8.99721L6.2575 8.99728L6.25753 8.99736L6.25755 8.99744L6.25758 8.99752L6.25761 8.9976L6.25763 8.99768L6.25766 8.99776L6.25768 8.99784L6.25771 8.99791L6.25774 8.99799L6.25776 8.99807L6.25779 8.99815L6.25782 8.99823L6.25784 8.99831L6.25787 8.99839L6.2579 8.99847L6.25792 8.99854L6.25795 8.99862L6.25797 8.9987L6.258 8.99878L6.25803 8.99886L6.25805 8.99894L6.25808 8.99902L6.25811 8.9991L6.25813 8.99917L6.25816 8.99925L6.25819 8.99933L6.25821 8.99941L6.25824 8.99949L6.25826 8.99957L6.25829 8.99965L6.25832 8.99973L6.25834 8.9998L6.25837 8.99988L6.2584 8.99996L6.25842 9.00004L6.25845 9.00012L6.25848 9.0002L6.2585 9.00028L6.25853 9.00036L6.25855 9.00043L6.25858 9.00051L6.25861 9.00059L6.25863 9.00067L6.25866 9.00075L6.25869 9.00083L6.25871 9.00091L6.25874 9.00099L6.25877 9.00106L6.25879 9.00114L6.25882 9.00122L6.25884 9.0013L6.25887 9.00138L6.2589 9.00146L6.25892 9.00154L6.25895 9.00162L6.25898 9.00169L6.259 9.00177L6.25903 9.00185L6.25906 9.00193L6.25908 9.00201L6.25911 9.00209L6.25913 9.00217L6.25916 9.00225L6.25919 9.00232L6.25921 9.0024L6.25924 9.00248L6.25927 9.00256L6.25929 9.00264L6.25932 9.00272L6.25935 9.0028L6.25937 9.00288L6.2594 9.00295L6.25943 9.00303L6.25945 9.00311L6.25948 9.00319L6.2595 9.00327L6.25953 9.00335L6.25956 9.00343L6.25958 9.00351L6.25961 9.00358L6.25964 9.00366L6.25966 9.00374L6.25969 9.00382L6.25972 9.0039L6.25974 9.00398L6.25977 9.00406L6.25979 9.00414L6.25982 9.00421L6.25985 9.00429L6.25987 9.00437L6.2599 9.00445L6.25993 9.00453L6.25995 9.00461L6.25998 9.00469L6.26 9.00477L6.26003 9.00484L6.26006 9.00492L6.26008 9.005L6.26011 9.00508L6.26014 9.00516L6.26016 9.00524L6.26019 9.00532L6.26022 9.0054L6.26024 9.00547L6.26027 9.00555L6.2603 9.00563L6.26032 9.00571L6.26035 9.00579L6.26037 9.00587L6.2604 9.00595L6.26043 9.00603L6.26045 9.0061L6.26048 9.00618L6.26051 9.00626L6.26053 9.00634L6.26056 9.00642L6.26059 9.0065L6.26061 9.00658L6.26064 9.00666L6.26066 9.00673L6.26069 9.00681L6.26072 9.00689L6.26074 9.00697L6.26077 9.00705L6.2603 9.00721L6.26567 9.02015C6.5943 9.81271 7.05553 10.5545 7.74718 11.4287L7.75453 11.438L7.7601 11.4436C9.01181 12.9772 10.3351 14.1773 11.7981 15.0983C11.9912 15.2202 12.1878 15.3181 12.3656 15.4066L12.3692 15.4084C12.5334 15.4901 12.6776 15.5621 12.7988 15.637L12.8066 15.6418L12.8145 15.6457C12.8144 15.6457 12.8166 15.647 12.8252 15.6523C12.8326 15.6569 12.8498 15.6678 12.8688 15.6773C13.0457 15.7653 13.2201 15.8102 13.4034 15.8102C13.8597 15.8102 14.1436 15.5274 14.2265 15.4449L14.2286 15.4428L15.7677 13.9106C15.9117 13.7673 16.1053 13.6328 16.3062 13.6328C16.5022 13.6328 16.682 13.7588 16.8067 13.8949L16.8066 13.8951L16.8131 13.9016L16.8176 13.9061L16.8221 13.9106L19.3018 16.3792L19.3025 16.3799C19.5111 16.5856 19.5907 16.7694 19.5911 16.9324C19.5914 17.0455 19.5535 17.1706 19.4615 17.3081C19.459 17.3087 19.4564 17.3094 19.4539 17.3102C19.4397 17.3204 19.422 17.3362 19.4177 17.3407L19.4109 17.3483L19.4066 17.3537L19.4049 17.3558L19.4024 17.3592L19.4009 17.3611L19.3826 17.3864L19.32 17.4735L19.2937 17.5104L19.2911 17.5141C19.1541 17.6603 19.0144 17.7955 18.8631 17.942C18.8293 17.9747 18.7948 18.0081 18.7597 18.0422M6.13119 13.4343L18.7597 18.0422M13.0994 13.972L13.0994 13.972L13.0965 13.9706C12.9328 13.8891 12.7889 13.8173 12.6679 13.7426C11.3573 12.9138 10.1629 11.8319 9.01383 10.4265C8.50006 9.77985 8.14668 9.23348 7.88618 8.69138C8.18303 8.41537 8.46284 8.13268 8.73236 7.86038C8.7646 7.82781 8.79669 7.79539 8.82865 7.76314C8.89211 7.69996 8.95547 7.63576 9.01809 7.5723L9.01846 7.57193C9.08157 7.50798 9.14395 7.44477 9.20622 7.38278C9.70991 6.88133 9.97392 6.29251 9.97392 5.69086C9.97392 5.08921 9.70991 4.50039 9.20622 3.99894L7.97763 2.77583C7.8377 2.63652 7.69601 2.49544 7.56359 2.35482L7.56361 2.35481L7.5614 2.35253C7.29167 2.07505 7.00576 1.78581 6.70978 1.51366C6.24117 1.05305 5.67126 0.8 5.06432 0.8C4.45683 0.8 3.8779 1.05347 3.39602 1.51402L3.39599 1.51399L3.3931 1.51686L3.3886 1.52135L3.3841 1.52583L3.3841 1.52582L3.38348 1.52645L1.85399 3.06256C1.85388 3.06267 1.85378 3.06277 1.85368 3.06287C1.24456 3.66941 0.895472 4.41211 0.819302 5.26995H0.819298L0.819196 5.27118C0.707418 6.62509 1.10781 7.87812 1.40714 8.68181C2.1455 10.6647 3.24747 12.4986 4.88384 14.4571L4.88427 14.4576C6.87323 16.822 9.26736 18.6901 12.0026 20.0064L12.004 20.007C13.0438 20.4976 14.4539 21.0896 16.0369 21.1907L16.0402 21.1908C16.134 21.1953 16.2377 21.2 16.3332 21.2C17.4261 21.2 18.3531 20.8066 19.0766 20.0247L19.0959 20.0039L19.0978 20.0001C19.1013 19.9959 19.1051 19.991 19.1091 19.9854C19.3165 19.7365 19.5537 19.5082 19.8132 19.2584C19.8332 19.2391 19.8533 19.2197 19.8736 19.2001C20.068 19.0156 20.2681 18.8209 20.4643 18.6165C20.94 18.1239 21.2 17.5382 21.2 16.9274C21.2 16.3111 20.9346 15.7287 20.4479 15.2488C20.4477 15.2486 20.4475 15.2484 20.4473 15.2482L17.9789 12.7819C17.5106 12.297 16.9346 12.0276 16.3152 12.0276C15.7005 12.0276 15.1207 12.2922 14.6349 12.7758L13.3171 14.0837C13.2815 14.0653 13.2462 14.0473 13.2116 14.0296C13.1731 14.01 13.1355 13.9907 13.0994 13.972ZM19.3988 17.3642C19.3993 17.3635 19.3995 17.3633 19.3985 17.3646L19.3988 17.3642Z" fill="#003B6C" stroke="#003B6C" stroke-width="0.4"/>
</svg>
