<svg width="20" height="20" viewBox="0 0 20 20" fill="none" xmlns="http://www.w3.org/2000/svg">
<path d="M10 0C4.486 0 0 4.486 0 10C0 15.514 4.486 20 10 20C15.514 20 20 15.514 20 10C20 4.486 15.514 0 10 0ZM10 17.8722C5.65933 17.8722 2.12762 14.3409 2.12762 10C2.12762 5.65912 5.65933 2.12783 10 2.12783C14.3407 2.12783 17.8724 5.65912 17.8724 10C17.8724 14.3409 14.3407 17.8722 10 17.8722Z" fill="#003B6C"/>
<path d="M15.2111 9.69071H10.7171V4.28725C10.7171 3.83254 10.3484 3.46387 9.8937 3.46387C9.43898 3.46387 9.07031 3.83254 9.07031 4.28725V10.5141C9.07031 10.9688 9.43898 11.3375 9.8937 11.3375H15.2111C15.6658 11.3375 16.0345 10.9688 16.0345 10.5141C16.0345 10.0594 15.6658 9.69071 15.2111 9.69071Z" fill="#003B6C"/>
</svg>
